<svg width="32" height="32" viewBox="0 0 32 32" fill="none" xmlns="http://www.w3.org/2000/svg">
<rect width="32" height="32" fill="#2F80ED"/>
<path d="M12.8477 9.60938C13.4648 9.75 13.9531 9.92578 14.3125 10.1367C14.7344 10.3945 14.9453 10.6992 14.9453 11.0508C14.9453 11.457 14.9336 11.7812 14.9102 12.0234C14.8867 12.2656 14.7734 12.5664 14.5703 12.9258C14.2734 13.4414 13.9883 13.6992 13.7148 13.6992C13.4648 13.6992 13.2188 13.6602 12.9766 13.582C12.7344 13.4961 12.5 13.4141 12.2734 13.3359C11.7969 13.1797 11.1445 13.1172 10.3164 13.1484C9.48828 13.1719 8.71094 13.3477 7.98438 13.6758C7.25781 14.0039 6.59766 14.5273 6.00391 15.2461C5.41016 15.957 5.41016 17.168 6.00391 18.8789C6.29297 19.7148 6.88281 20.3164 7.77344 20.6836C8.66406 21.0508 9.57031 21.1914 10.4922 21.1055C11.1953 21.0352 11.8555 20.5859 12.4727 19.7578C13.0898 18.9297 14.1016 18.9453 15.5078 19.8047C16 20.1328 15.9492 20.6602 15.3555 21.3867C14.7695 22.1055 14.3047 22.5898 13.9609 22.8398C13.7188 23.0117 13.4766 23.1602 13.2344 23.2852C12.5859 23.6289 11.9297 23.832 11.2656 23.8945C10.6094 23.9492 9.95312 23.9453 9.29688 23.8828C8.42969 23.8047 7.59766 23.6055 6.80078 23.2852C6.16016 23.0352 5.55078 22.7031 4.97266 22.2891C4.39453 21.875 3.88672 21.3672 3.44922 20.7656C2.62891 19.6641 2.08203 18.4375 1.80859 17.0859C1.36328 15 1.86719 13.2617 3.32031 11.8711C4.04688 11.1602 4.86719 10.6289 5.78125 10.2773C6.70312 9.92578 7.59375 9.67969 8.45312 9.53906C9.17188 9.42969 9.90625 9.375 10.6562 9.375C11.4062 9.375 12.1367 9.45312 12.8477 9.60938ZM17.3008 10.1484C17.457 9.65625 17.7461 9.39453 18.168 9.36328C19.418 9.30078 20.6641 9.33203 21.9062 9.45703C23.1562 9.57422 24.4023 9.95703 25.6445 10.6055C27.043 11.3477 28.1602 12.3008 28.9961 13.4648C29.707 14.4648 30.1602 15.5625 30.3555 16.7578C30.4805 17.6094 30.3281 18.4492 29.8984 19.2773C29.4766 20.1055 29.0156 20.7969 28.5156 21.3516C27.9297 21.9844 27.2734 22.4883 26.5469 22.8633C25.8125 23.2461 25.0039 23.5078 24.1211 23.6484C23.0117 23.8281 21.875 23.8633 20.7109 23.7539C19.5469 23.6367 18.3867 23.5 17.2305 23.3438C16.8711 23.3047 16.6328 23.1992 16.5156 23.0273C16.3984 22.8555 16.3359 22.6445 16.3281 22.3945C16.2656 20.6523 16.2891 18.5664 16.3984 16.1367C16.5156 13.6992 16.8164 11.7031 17.3008 10.1484ZM26.7578 16.7578C26.7109 16.1562 26.3633 15.5938 25.7148 15.0703C25.4727 14.8906 25.1953 14.7109 24.8828 14.5312C23.9766 14.0625 23.0469 13.7656 22.0938 13.6406C21.8438 13.6016 21.6055 13.5859 21.3789 13.5938C21.1211 13.6172 20.9023 13.7109 20.7227 13.875C20.6367 13.9531 20.5547 14.25 20.4766 14.7656C20.3984 15.2812 20.332 15.8477 20.2773 16.4648C20.2227 17.0742 20.1875 17.6445 20.1719 18.1758C20.1562 18.707 20.1719 19.0195 20.2188 19.1133C20.2422 19.1758 20.2734 19.2227 20.3125 19.2539C20.7109 19.4648 21.1562 19.625 21.6484 19.7344C22.1328 19.8359 22.6055 19.875 23.0664 19.8516C23.6758 19.8281 24.3359 19.7109 25.0469 19.5C25.7656 19.2812 26.2422 18.8789 26.4766 18.293C26.6797 17.793 26.7734 17.2812 26.7578 16.7578Z" fill="white"/>
</svg>
