<?xml version="1.0" encoding="utf-8"?><svg viewBox="0 0 95 70" xmlns="http://www.w3.org/2000/svg" xmlns:xlink="http://www.w3.org/1999/xlink"><style>:root>svg{display:none}:root>svg:target{display:block}</style><svg viewBox="0 0 7 4" id="arrow" xmlns="http://www.w3.org/2000/svg"><path d="M7 0H0l3.5 3.5L7 0z" fill="#2F80ED"/></svg><svg viewBox="0 0 15 16" id="check" xmlns="http://www.w3.org/2000/svg"><path fill-rule="evenodd" clip-rule="evenodd" d="M1.72 8.625l1.56-1.25 3.231 4.038 6.217-7.549 1.544 1.272-7.783 9.45-4.77-5.961z" fill="#2F80ED"/></svg><svg viewBox="0 0 31 31" id="close" xmlns="http://www.w3.org/2000/svg"><path fill-rule="evenodd" clip-rule="evenodd" d="M28.83 2.892L2.061 30.88.278 29.013 27.045 1.026l1.784 1.866z" fill="#2673DD"/><path fill-rule="evenodd" clip-rule="evenodd" d="M28.493 30.731L1.727 2.744 3.51.88l26.767 27.986-1.785 1.866z" fill="#2774DE"/></svg><svg viewBox="0 0 54 54" id="document" xmlns="http://www.w3.org/2000/svg"><path d="M6.284 6.297v46.777a.9.9 0 00.9.9h34.183a.9.9 0 00.9-.9V15.293c0-.02-.01-.037-.012-.057a.847.847 0 00-.046-.23c-.01-.03-.017-.058-.03-.086a.89.89 0 00-.18-.263L33.004 5.66a.873.873 0 00-.347-.21.891.891 0 00-.234-.046c-.015.003-.032-.007-.051-.007H7.184a.9.9 0 00-.9.9zm32.911 8.096h-5.924V8.47l5.924 5.924zM8.083 7.197h23.389v8.096a.9.9 0 00.9.9h8.095v35.981H8.083V7.197z" fill="#333"/><path d="M44.066 46.776v1.8h2.698a.9.9 0 00.9-.9V.9a.9.9 0 00-.9-.9H12.581a.9.9 0 00-.9.9v2.698h1.8v-1.8h32.383v44.978h-1.798z" fill="#333"/><path d="M13.48 17.99h21.59v1.8H13.48v-1.8zM13.48 12.594h7.197v1.799h-7.196v-1.8zM13.48 23.388h14.394v1.8H13.48v-1.8zM29.673 23.388h5.397v1.8h-5.397v-1.8zM13.48 28.786h21.59v1.799H13.48v-1.8zM13.48 39.58h21.59v1.8H13.48v-1.8zM21.576 34.183H35.07v1.799H21.576v-1.799zM13.48 34.183h6.298v1.799H13.48v-1.799zM13.48 44.978h3.6v1.799h-3.6v-1.799zM18.878 44.978H35.07v1.799H18.878v-1.799z" fill="#333"/></svg><svg viewBox="0 0 94 70" id="grade" xmlns="http://www.w3.org/2000/svg"><circle opacity=".1" cx="59" cy="35" r="35" fill="#2F80ED"/><path d="M54.964 60.942c0 .563-.456 1.02-1.018 1.02H43.768v-3.486a7.164 7.164 0 00-5.25-6.885l-5.947-1.62v-1.543a7.138 7.138 0 003.054-5.832v-1.93c.26-.118.423-.203.455-.215a1.02 1.02 0 00.563-.913v-6.115l5.454-2.1a1.02 1.02 0 000-1.905l-13.232-5.096a1.026 1.026 0 00-.73 0l-13.232 5.096a1.02 1.02 0 00-.653.947v4.674l-2.755 2.76 1.439 1.44 1.316-1.317v1.617h2.036v-1.617l1.316 1.318 1.44-1.441-2.756-2.76v-3.19l4.071 1.574v6.115a1.02 1.02 0 00.563.918c.032.015.196.097.455.216v1.924a6.997 6.997 0 003.054 5.835v1.54l-5.951 1.621a7.163 7.163 0 00-5.246 6.884v3.486H3.054a1.019 1.019 0 01-1.018-1.02v-39.75h28.5v-2.038h-28.5v-5.096c0-.563.455-1.02 1.018-1.02h27.482V11H3.054A3.056 3.056 0 000 14.058v46.884A3.056 3.056 0 003.054 64h50.892A3.056 3.056 0 0057 60.942V23.231h-2.036v37.711zm-28.5-10.192v-1.325a6.915 6.915 0 004.072 0v1.325c.003.292.132.568.355.758L28.5 53.502l-2.391-1.994c.223-.189.352-.465.355-.758zM28.5 26.36l10.396 4.005L28.5 34.37l-10.396-4.005L28.5 26.361zm-.365 10.054c.235.09.495.09.73 0l5.742-2.212v4.688a17.447 17.447 0 01-6.107 1.668c-2.12-.18-4.19-.746-6.107-1.669v-4.688l5.742 2.213zm-4.724 6.182v-1.094a15.856 15.856 0 005.089 1.094 15.856 15.856 0 005.09-1.094v1.094a5.098 5.098 0 01-2.552 4.411 5.082 5.082 0 01-5.09-.009 4.809 4.809 0 01-1.047-.804 5.03 5.03 0 01-1.49-3.598zm-8.143 15.88a5.12 5.12 0 013.749-4.918l4.8-1.307 4.031 3.363c.378.315.926.315 1.304 0l4.03-3.363 4.798 1.306a5.122 5.122 0 013.752 4.919v3.486H38.68v-4.077h-2.036v4.077H20.357v-4.077h-2.036v4.077h-3.053v-3.486z" fill="#868686"/><path d="M6 16h2v2H6v-2zM11 16h2v2h-2v-2zM15 16h2v2h-2v-2zM56 3H36a3 3 0 00-3 3v12a3 3 0 003 3h3v4a1 1 0 001.78.625L44.48 21H56a3 3 0 003-3V6a3 3 0 00-3-3zm1 15a1 1 0 01-1 1H44a.999.999 0 00-.78.375L41 22.149V20a1 1 0 00-1-1h-4a1 1 0 01-1-1V6a1 1 0 011-1h20a1 1 0 011 1v12z" fill="#868686"/><path d="M39 7h15v2H39V7zM39 11h15v2H39v-2zM39 16h15v2H39v-2z" fill="#868686"/></svg><svg viewBox="0 0 30 23" id="menu" xmlns="http://www.w3.org/2000/svg"><path stroke="#fff" stroke-width="3" d="M0 1.5h30M0 11.5h15M0 21.5h30"/></svg><svg viewBox="0 0 85 70" id="product" xmlns="http://www.w3.org/2000/svg"><circle opacity=".1" cx="50" cy="35" r="35" fill="#2F80ED"/><path d="M35 57h-2v-9.8a1 1 0 10-2 0V57H5V37h8.32a1 1 0 100-2H4a1 1 0 00-1 1v21H1a1 1 0 00-1 1v2a5 5 0 005 5h26a5 5 0 005-5v-2a1 1 0 00-1-1zm-1 3a3 3 0 01-3 3h-2v-1a1 1 0 10-2 0v1H9v-1a1 1 0 10-2 0v1H5a3 3 0 01-3-3v-1h32v1zM52 11h2a1 1 0 100-2h-2a3 3 0 00-3 3v1h-1a1 1 0 100 2h1v3a1 1 0 102 0v-3h1a1 1 0 100-2h-1v-1a1 1 0 011-1z" fill="#868686"/><path d="M57 5H45a3 3 0 00-3 3v2a1 1 0 102 0V8a1 1 0 011-1h12a1 1 0 011 1v12a1 1 0 01-1 1H45a1 1 0 01-1-1v-6a1 1 0 10-2 0v6a3 3 0 003 3h12a3 3 0 003-3V8a3 3 0 00-3-3zM47 45a4 4 0 108 0 4 4 0 00-8 0zm6 0a2 2 0 11-4 0 2 2 0 014 0z" fill="#868686"/><path d="M57 36H45a3 3 0 00-3 3v12a3 3 0 003 3h12a3 3 0 003-3v-2a1 1 0 10-2 0v2a1 1 0 01-1 1H45a1 1 0 01-1-1V39a1 1 0 011-1h12a1 1 0 011 1v6a1 1 0 102 0v-6a3 3 0 00-3-3zM22.47 16.85a1 1 0 00.98.04l6-3a1 1 0 000-1.78l-6-3A1 1 0 0022 10v6a1 1 0 00.47.85zM24 11.62L26.76 13 24 14.38v-2.76z" fill="#868686"/><path d="M25 22a9 9 0 100-18 9 9 0 000 18zm0-16a7 7 0 110 14 7 7 0 010-14zM35 26a1 1 0 00.8-.4l3-4a1 1 0 10-1.6-1.2l-3 4A1 1 0 0035 26zM37.2 29.6a1 1 0 001.4.2l4-3a1 1 0 00-1.2-1.6l-4 3a1 1 0 00-.2 1.4zM47 31.8a1 1 0 00-1.2-.8l-5 1a1.005 1.005 0 10.2 2h.2l5-1a1 1 0 00.8-1.2zM1 32h12a1 1 0 001-1V15a1 1 0 00-1-1H1a1 1 0 00-1 1v16a1 1 0 001 1zm1-16h10v14H2V16z" fill="#868686"/><path d="M9 18H7a1 1 0 100 2h2a1 1 0 100-2zM9 22H5a1 1 0 100 2h4a1 1 0 100-2zM9 26H5a1 1 0 100 2h4a1 1 0 100-2zM34.12 31.7a1.003 1.003 0 00-1.74 1l4.41 7.63-16 6H20.64l-2.6 1.5-1.73 1a2 2 0 01-2.73-.73l-2-3.46a2 2 0 01.75-2.64l3.46-2 2.5 4.33a1 1 0 00.87.5 1 1 0 00.87-1.5l-2.58-4.46L30 28.52l.41.71a1.003 1.003 0 001.74-1l-1-1.73a1 1 0 00-.69-.48 1 1 0 00-.82.21l-14 11.54-4.26 2.46a4 4 0 00-1.84 4.53l-1 .57a3 3 0 001.5 5.6 3.06 3.06 0 001.5-.4l1-.57a3.88 3.88 0 002.8 1.18 3.94 3.94 0 002-.54l.87-.5 2 3.47a3 3 0 004.09 1.1 3 3 0 001.1-4.1l-1.82-3.17 15-5.63a1 1 0 00.52-1.43l-4.98-8.64zM10.5 48.79a1 1 0 01-.76.1 1 1 0 01-.61-.46 1 1 0 01.37-1.37l.87-.5 1 1.73-.87.5zm13.16 2.8a1 1 0 01.1.76 1 1 0 01-.47.6 1 1 0 01-1.36-.36l-2-3.47 1.66-.95h.08l1.99 3.42z" fill="#868686"/></svg><svg viewBox="0 0 83 70" id="taught" xmlns="http://www.w3.org/2000/svg"><circle opacity=".1" cx="48" cy="35" r="35" fill="#2F80ED"/><path d="M60.016 33.516h-.984v-6.072c0-2.059-.8-3.993-2.256-5.446a7.652 7.652 0 00-5.447-2.256h-1.152v-1.065c2.349-1.363 3.936-3.9 3.936-6.806 0-4.34-3.531-7.871-7.871-7.871s-7.871 3.531-7.871 7.871c0 2.905 1.587 5.443 3.935 6.806v1.065h-1.152c-2.057 0-3.991.8-5.446 2.256a7.646 7.646 0 00-2.256 5.446v6.072h-1.968v-2.951a.984.984 0 00-.984-.984h-2.952v-.338c0-2.869.969-5.587 2.742-7.79.366.162.769.257 1.194.257a2.955 2.955 0 002.951-2.952 2.955 2.955 0 00-2.951-2.951 2.955 2.955 0 00-2.952 2.951c0 .48.126.926.33 1.327a14.313 14.313 0 00-3.281 9.158v.338h-2.952a.984.984 0 00-.984.983v2.952h-.984a.984.984 0 00-.984.984v3.935c0 .545.441.984.984.984h.984v5.904a4.925 4.925 0 00-4.92 4.919c0 1.461.654 2.76 1.668 3.663a7.91 7.91 0 00-3.635 3.358 7.92 7.92 0 00-3.635-3.358c1.014-.902 1.667-2.202 1.667-3.663a4.925 4.925 0 00-4.919-4.92 4.925 4.925 0 00-4.92 4.92c0 1.461.654 2.76 1.668 3.663C1.9 55.145 0 57.885 0 61.065v2.951c0 .544.44.984.984.984h41.322c.544 0 .984-.44.984-.984v-.984h14.758c.544 0 .984-.44.984-.984V39.42h.984c.543 0 .984-.44.984-.983V34.5a.984.984 0 00-.984-.984zM31.484 17.774a.985.985 0 010 1.968.985.985 0 010-1.968zm25.58 9.67v6.072h-1.967v-3.935h-1.968v3.935h-5.903v-7.263l2.512 1.256a.973.973 0 00.816.03.986.986 0 00.557-.598l1.68-5.037a5.698 5.698 0 012.595 1.486 5.695 5.695 0 011.678 4.054zM42.799 21.71l1.95 2.598-1.867.934-1.177-3.532h1.094zm6.887 0h1.096l-1.177 3.532-1.867-.934 1.948-2.598zM46.242 5.968c2.893 0 5.301 2.092 5.803 4.842a8.449 8.449 0 01-4.937-2.417l-.168-.17a1.011 1.011 0 00-1.394 0l-.167.169a8.442 8.442 0 01-4.938 2.417c.5-2.749 2.908-4.841 5.8-4.841zm-5.83 6.835a10.385 10.385 0 005.83-2.526 10.388 10.388 0 005.83 2.526 5.912 5.912 0 01-5.83 4.971 5.912 5.912 0 01-5.83-4.971zm5.83 6.939c.68 0 1.337-.096 1.968-.259v.915l-1.968 2.623-1.968-2.623v-.915c.63.163 1.287.259 1.968.259zm-10.823 7.702c0-1.532.597-2.973 1.68-4.055a5.708 5.708 0 012.595-1.486l1.68 5.037a.986.986 0 001.372.57l2.512-1.257v7.263h-5.903v-3.935h-1.968v3.935H35.42v-6.072zm-11.806 4.104h5.903v1.968h-5.903v-1.968zm-4.92 18.694a2.955 2.955 0 012.952-2.952 2.955 2.955 0 012.952 2.952 2.955 2.955 0 01-2.952 2.952 2.955 2.955 0 01-2.951-2.952zm-13.774 0a2.955 2.955 0 012.952-2.952 2.955 2.955 0 012.952 2.952 2.955 2.955 0 01-2.952 2.952 2.955 2.955 0 01-2.952-2.952zM1.968 61.065A5.91 5.91 0 017.87 55.16a5.91 5.91 0 015.903 5.904v1.967H1.968v-1.967zm13.774 0a5.91 5.91 0 015.903-5.904 5.91 5.91 0 015.903 5.904v1.967H15.742v-1.967zm25.58 1.967H29.517v-1.967a5.91 5.91 0 015.903-5.904 5.91 5.91 0 015.904 5.904v1.967zm-8.854-12.79a2.955 2.955 0 012.951-2.952 2.955 2.955 0 012.952 2.952 2.955 2.955 0 01-2.952 2.952 2.955 2.955 0 01-2.951-2.952zm24.596 10.823H43.29c0-3.18-1.899-5.92-4.619-7.16 1.014-.902 1.668-2.202 1.668-3.663a4.925 4.925 0 00-4.92-4.92 4.925 4.925 0 00-4.919 4.92c0 1.461.653 2.76 1.668 3.663a7.91 7.91 0 00-3.636 3.358 7.921 7.921 0 00-3.635-3.358c1.014-.902 1.668-2.202 1.668-3.663a4.922 4.922 0 00-2.952-4.502v-6.32h33.451v21.645zm1.968-23.613H21.645v-1.968h37.387v1.968zM2.952 23.677h15.742a2.955 2.955 0 002.951-2.951v-1.56l3.647-3.648a.983.983 0 000-1.391l-3.647-3.647V8.92a2.955 2.955 0 00-2.951-2.952H2.951A2.955 2.955 0 000 8.919v11.807a2.955 2.955 0 002.952 2.951zM1.968 8.92c0-.543.442-.983.984-.983h15.742c.542 0 .983.44.983.983v1.968a.98.98 0 00.289.696l3.24 3.24-3.24 3.24a.98.98 0 00-.289.695v1.968a.985.985 0 01-.983.984H2.951a.985.985 0 01-.984-.984V8.919z" fill="#868686"/><path d="M3.935 9.903H17.71v1.968H3.935V9.903zM3.935 17.774H17.71v1.968H3.935v-1.968zM5.903 13.839h9.839v1.967H5.903V13.84z" fill="#868686"/></svg><svg viewBox="0 0 95 70" id="test" xmlns="http://www.w3.org/2000/svg"><circle opacity=".1" cx="60" cy="35" r="35" fill="#2F80ED"/><path d="M10.067 28h13.866c.59 0 1.067-.448 1.067-1s-.477-1-1.067-1H10.067C9.477 26 9 26.448 9 27s.477 1 1.067 1zM36 31H10a1 1 0 100 2h26a1 1 0 100-2zM36 38H10a1 1 0 100 2h26a1 1 0 100-2z" fill="#868686"/><path d="M54.072 5.071L19.93 5C16.66 5 14 7.705 14 11.03v5.21l-8.07.018c-3.27 0-5.93 2.705-5.93 6.03v21.497c0 3.326 2.66 6.03 5.93 6.03H12v10.168c0 .42.254.797.64.949a.989.989 0 001.1-.265l9.704-10.855 16.626-.069c3.27 0 5.93-2.705 5.93-6.029V43.6l5.26 5.884a.994.994 0 001.1.264c.386-.151.64-.528.64-.948v-10.17h1.07c3.27 0 5.93-2.704 5.93-6.028V11.1c0-3.324-2.659-6.029-5.928-6.03zM44 43.713c0 2.204-1.763 3.995-3.934 3.995l-17.07.072a.993.993 0 00-.736.332L14 57.352v-8.555c0-.562-.447-1.017-1-1.017H5.93C3.763 47.78 2 45.987 2 43.784V22.287c0-2.204 1.763-3.996 3.932-3.996L15 18.27h.002l25.068-.053c2.167 0 3.93 1.793 3.93 3.997V43.713zM58 32.6c0 2.203-1.763 3.995-3.93 3.995H52c-.553 0-1 .456-1 1.017v8.556l-5-5.593V22.216c0-3.326-2.66-6.03-5.932-6.03L16 16.236v-5.207c0-2.204 1.763-3.996 3.928-3.996l34.141.07h.002c2.167 0 3.93 1.794 3.93 3.997V32.6H58z" fill="#868686"/></svg></svg>