<svg width="32" height="32" viewBox="0 0 32 32" fill="none" xmlns="http://www.w3.org/2000/svg">
<rect x="0.5" y="0.5" width="31" height="31" fill="white"/>
<path d="M6.46289 22.9395C6.70898 23.9707 6.94922 24.7559 7.18359 25.2949C7.23047 25.418 7.2832 25.5469 7.3418 25.6816C7.40039 25.8105 7.44141 25.9395 7.46484 26.0684C7.49414 26.3086 7.39453 26.4932 7.16602 26.6221C6.9375 26.7451 6.66504 26.8301 6.34863 26.877C6.03809 26.9238 5.78027 26.9326 5.5752 26.9033C5.37598 26.874 5.20898 26.8271 5.07422 26.7627C4.82812 26.6631 4.63184 26.4902 4.48535 26.2441C4.33887 25.998 4.22168 25.7578 4.13379 25.5234C3.95215 25.0723 3.79102 24.4922 3.65039 23.7832C3.50977 23.0742 3.39551 22.3389 3.30762 21.5771C3.21973 20.8096 3.16406 20.0713 3.14062 19.3623C3.12305 18.6475 3.14648 18.0645 3.21094 17.6133C3.26367 17.2266 3.35156 16.8984 3.47461 16.6289C3.55664 16.4473 3.68262 16.3066 3.85254 16.207C4.04004 16.1074 4.19238 16.043 4.30957 16.0137C4.43262 15.9785 4.60254 15.9609 4.81934 15.9609C5.13574 15.9668 5.38477 16.0254 5.56641 16.1367C5.75391 16.2422 5.83887 16.4883 5.82129 16.875C5.7627 18.1641 5.85645 19.5117 6.10254 20.918C6.87012 20.8184 7.61719 20.7217 8.34375 20.6279C9.07617 20.5342 9.65039 20.4668 10.0664 20.4258C10.0371 19.7988 10.0283 19.2012 10.04 18.6328C10.0576 18.0586 10.1016 17.5723 10.1719 17.1738C10.2129 16.9277 10.2803 16.6729 10.374 16.4092C10.4678 16.1396 10.626 15.9287 10.8486 15.7764C10.9658 15.6943 11.1738 15.6123 11.4727 15.5303C11.7773 15.4482 12.0322 15.3984 12.2373 15.3809C12.4482 15.3633 12.6768 15.3955 12.9229 15.4775C13.1689 15.5596 13.3037 15.7207 13.3271 15.9609C13.3271 16.0957 13.3125 16.2334 13.2832 16.374C13.2539 16.5146 13.2275 16.6494 13.2041 16.7783C12.9463 18.0146 12.8672 19.4209 12.9668 20.9971C13.0664 22.5674 13.2773 23.9941 13.5996 25.2773C13.6875 25.6523 13.6494 25.9131 13.4854 26.0596C13.3271 26.2061 13.0957 26.3086 12.791 26.3672C12.5801 26.4082 12.3955 26.4346 12.2373 26.4463C12.0791 26.458 11.8975 26.4316 11.6924 26.3672C11.5107 26.3145 11.3584 26.2002 11.2354 26.0244C11.0654 25.79 10.916 25.4854 10.7871 25.1104C10.6055 24.5889 10.4121 23.6982 10.207 22.4385C9.76758 22.5791 9.14355 22.6934 8.33496 22.7812C7.52637 22.8633 6.90234 22.916 6.46289 22.9395ZM18.6885 22.7021L19.2158 23.0625C19.2334 23.0742 19.248 23.083 19.2598 23.0889C19.6816 23.3467 19.9746 23.6514 20.1387 24.0029C20.3086 24.3545 20.3115 24.75 20.1475 25.1895C19.9775 25.623 19.6758 25.9922 19.2422 26.2969C18.9551 26.4961 18.6094 26.6396 18.2051 26.7275C17.8008 26.8096 17.3818 26.8389 16.9482 26.8154C16.9482 26.8213 16.9482 26.8271 16.9482 26.833H16.9395C16.4004 26.7979 16.1426 26.7598 16.166 26.7188C15.9727 26.6777 15.8057 26.6367 15.665 26.5957L14.6895 26.1387C14.4961 26.0215 14.3291 25.8867 14.1885 25.7344C14.1826 25.7227 14.1768 25.7168 14.1709 25.7168C14.165 25.7109 14.1621 25.7021 14.1621 25.6904C14.1504 25.6846 14.1416 25.6787 14.1357 25.6729C14.1357 25.667 14.1328 25.6611 14.127 25.6553C14.0508 25.5674 14.0098 25.4736 14.0039 25.374V25.3301C14.0098 25.2012 14.0156 25.0459 14.0215 24.8643C14.0332 24.6768 14.0654 24.5244 14.1182 24.4072C14.1709 24.2725 14.25 24.2314 14.3555 24.2842C14.4609 24.3311 14.5518 24.3867 14.6279 24.4512C14.6338 24.457 14.6396 24.4629 14.6455 24.4688C14.6572 24.4746 14.6689 24.4805 14.6807 24.4863C14.8564 24.6445 15.0586 24.7793 15.2871 24.8906C15.8027 25.1367 16.4268 25.2539 17.1592 25.2422C17.1826 25.2305 17.2207 25.21 17.2734 25.1807C17.4316 25.0869 17.4668 24.9609 17.3789 24.8027C17.373 24.791 17.3672 24.7822 17.3613 24.7764C17.3555 24.7646 17.3525 24.7559 17.3525 24.75C17.3057 24.6914 16.8691 24.4336 16.043 23.9766C15.252 23.4316 14.7979 23.0713 14.6807 22.8955C14.3994 22.4736 14.3145 22.0547 14.4258 21.6387C14.543 21.2168 14.792 20.8506 15.1729 20.54C15.8467 19.9893 16.9248 19.79 18.4072 19.9424C18.5889 19.9951 18.75 20.0479 18.8906 20.1006C18.9434 20.124 19.0195 20.1592 19.1191 20.2061C19.2188 20.2646 19.333 20.3262 19.4619 20.3906C19.6318 20.4609 19.6992 20.5371 19.6641 20.6191C19.6758 20.6309 19.6875 20.6455 19.6992 20.6631C19.7871 20.7744 19.8545 20.9326 19.9014 21.1377C19.9541 21.3369 19.916 21.4951 19.7871 21.6123C19.7695 21.624 19.7578 21.6328 19.752 21.6387C19.6406 21.7266 19.4795 21.7441 19.2686 21.6914C19.04 21.627 18.8174 21.5742 18.6006 21.5332L18.2314 21.4453C17.7627 21.3867 17.4199 21.3574 17.2031 21.3574C16.7695 21.5039 16.875 21.7852 17.5195 22.2012C17.5723 22.248 17.9619 22.415 18.6885 22.7021ZM21.1846 16.6113C21.3018 16.2422 21.5186 16.0459 21.835 16.0225C22.7725 15.9756 23.707 15.999 24.6387 16.0928C25.5762 16.1807 26.5107 16.4678 27.4424 16.9541C28.4912 17.5107 29.3291 18.2256 29.9561 19.0986C30.4893 19.8486 30.8291 20.6719 30.9756 21.5684C31.0693 22.207 30.9551 22.8369 30.6328 23.458C30.3164 24.0791 29.9707 24.5977 29.5957 25.0137C29.1562 25.4883 28.6641 25.8662 28.1191 26.1475C27.5684 26.4346 26.9619 26.6309 26.2998 26.7363C25.4678 26.8711 24.6152 26.8975 23.7422 26.8154C22.8691 26.7275 21.999 26.625 21.1318 26.5078C20.8623 26.4785 20.6836 26.3994 20.5957 26.2705C20.5078 26.1416 20.4609 25.9834 20.4551 25.7959C20.4082 24.4893 20.4258 22.9248 20.5078 21.1025C20.5957 19.2744 20.8213 17.7773 21.1846 16.6113ZM28.2773 21.5684C28.2422 21.1172 27.9814 20.6953 27.4951 20.3027C27.3135 20.168 27.1055 20.0332 26.8711 19.8984C26.1914 19.5469 25.4941 19.3242 24.7793 19.2305C24.5918 19.2012 24.4131 19.1895 24.2432 19.1953C24.0498 19.2129 23.8857 19.2832 23.751 19.4062C23.6865 19.4648 23.625 19.6875 23.5664 20.0742C23.5078 20.4609 23.458 20.8857 23.417 21.3486C23.376 21.8057 23.3496 22.2334 23.3379 22.6318C23.3262 23.0303 23.3379 23.2646 23.373 23.335C23.3906 23.3818 23.4141 23.417 23.4434 23.4404C23.7422 23.5986 24.0762 23.7188 24.4453 23.8008C24.8086 23.877 25.1631 23.9062 25.5088 23.8887C25.9658 23.8711 26.4609 23.7832 26.9941 23.625C27.5332 23.4609 27.8906 23.1592 28.0664 22.7197C28.2188 22.3447 28.2891 21.9609 28.2773 21.5684Z" fill="black"/>
<path d="M7 4.28126C7 4.28126 25 1.60443 25 12.7669C25 15 25 15 25 15H7V4.28126Z" fill="#FDC305"/>
<rect x="0.5" y="0.5" width="31" height="31" stroke="black"/>
</svg>
